<svg width="24" height="24" viewBox="0 0 24 24" fill="none" xmlns="http://www.w3.org/2000/svg">
<path d="M12.815 12.197L5.28302 13.453C5.19642 13.4675 5.11516 13.5044 5.0474 13.5603C4.97964 13.6161 4.92778 13.6888 4.89702 13.771L2.30002 20.728C2.05202 21.368 2.72102 21.978 3.33502 21.671L21.335 12.671C21.4597 12.6087 21.5646 12.513 21.6379 12.3945C21.7111 12.2759 21.75 12.1394 21.75 12C21.75 11.8606 21.7111 11.7241 21.6379 11.6055C21.5646 11.487 21.4597 11.3913 21.335 11.329L3.33502 2.329C2.72102 2.022 2.05202 2.633 2.30002 3.272L4.89802 10.229C4.92863 10.3114 4.98044 10.3843 5.04821 10.4403C5.11598 10.4963 5.19731 10.5335 5.28402 10.548L12.816 11.803C12.8624 11.8111 12.9044 11.8353 12.9346 11.8714C12.9649 11.9074 12.9815 11.9529 12.9815 12C12.9815 12.0471 12.9649 12.0926 12.9346 12.1286C12.9044 12.1647 12.8624 12.1889 12.816 12.197H12.815Z" fill="#8BABD8"/>
</svg>
